<?xml version="1.0" encoding="UTF-8" standalone="no"?>
<!DOCTYPE svg PUBLIC "-//W3C//DTD SVG 1.1//EN" "http://www.w3.org/Graphics/SVG/1.1/DTD/svg11.dtd">
<svg width="100%" height="100%" viewBox="0 0 256 256" version="1.1" xmlns="http://www.w3.org/2000/svg" xmlns:xlink="http://www.w3.org/1999/xlink" xml:space="preserve" xmlns:serif="http://www.serif.com/" style="fill-rule:evenodd;clip-rule:evenodd;stroke-linejoin:round;stroke-miterlimit:2;">
    <g transform="matrix(2.0495,0,0,2.0495,30.6485,24.5)">
        <path d="M12.195,84L0,84L0,101L19.292,101L34,85.468L34,59.304L44,55.783L44,42.979L34,38.498L34,13.002L19.584,0L0,0L0,17L12.379,17L16,20.25L16,79.494L12.195,84Z" style="fill:rgb(228,43,76);fill-rule:nonzero;"/>
    </g>
    <g transform="matrix(2.0495,0,0,2.0495,30.6485,24.5)">
        <path d="M82.886,17L95,17L95,0L75.789,0L61,13.294L61,39.459L50,42.979L50,55.783L61,60.263L61,85.761L75.496,101L95,101L95,84L82.701,84L79,80L79,20.406L82.886,17Z" style="fill:rgb(228,43,76);fill-rule:nonzero;"/>
    </g>
</svg>
